<svg xmlns="http://www.w3.org/2000/svg" viewBox="0 0 512 512" width="512" height="512"><rect width="512" height="512" rx="96" fill="#23324f"/><path d="M 69 103 H 295 V 172 H 161 V 218 H 275 V 287 H 161 V 399 H 69 Z" fill="#f3ede2"/><path d="M 318 236 H 432 A 30 30 0 0 1 462 266 V 332 A 30 30 0 0 1 432 362 H 372 L 332 398 L 338 362 H 318 A 30 30 0 0 1 288 332 V 266 A 30 30 0 0 1 318 236 Z" fill="#d4a843"/><circle cx="335" cy="299" r="13" fill="#23324f"/><circle cx="375" cy="299" r="13" fill="#23324f"/><circle cx="415" cy="299" r="13" fill="#23324f"/></svg>
